<svg xmlns="http://www.w3.org/2000/svg" width="39.996" height="39.987" viewBox="0 0 39.996 39.987">
  <path id="Icon_awesome-instagram" data-name="Icon awesome-instagram" d="M20,11.979A10.252,10.252,0,1,0,30.249,22.231,10.236,10.236,0,0,0,20,11.979ZM20,28.9a6.665,6.665,0,1,1,6.665-6.665A6.677,6.677,0,0,1,20,28.9ZM33.06,11.56a2.391,2.391,0,1,1-2.391-2.391A2.386,2.386,0,0,1,33.06,11.56Zm6.79,2.427c-.152-3.2-.883-6.041-3.23-8.378s-5.175-3.069-8.378-3.23c-3.3-.187-13.2-.187-16.5,0C8.549,2.53,5.712,3.262,3.365,5.6S.3,10.774.135,13.978c-.187,3.3-.187,13.2,0,16.5.152,3.2.883,6.041,3.23,8.378s5.175,3.069,8.378,3.23c3.3.187,13.2.187,16.5,0,3.2-.152,6.041-.883,8.378-3.23s3.069-5.175,3.23-8.378c.187-3.3.187-13.188,0-16.489ZM35.585,34.018a6.748,6.748,0,0,1-3.8,3.8c-2.632,1.044-8.878.8-11.787.8s-9.164.232-11.787-.8a6.748,6.748,0,0,1-3.8-3.8c-1.044-2.632-.8-8.878-.8-11.787s-.232-9.164.8-11.787a6.748,6.748,0,0,1,3.8-3.8C10.842,5.6,17.088,5.84,20,5.84s9.164-.232,11.787.8a6.748,6.748,0,0,1,3.8,3.8c1.044,2.632.8,8.878.8,11.787S36.629,31.395,35.585,34.018Z" transform="translate(0.005 -2.238)"/>
</svg>
